<svg xmlns="http://www.w3.org/2000/svg" width="16" height="16" fill="none" xmlns:v="https://vecta.io/nano"><path d="M15.5 8A7.75 7.75 0 1 0 0 8c0 3.313 2.031 6.094 4.906 7.219-.062-.594-.125-1.531.031-2.219l.906-3.844S5.625 8.688 5.625 8c0-1.062.625-1.875 1.406-1.875.656 0 .969.5.969 1.094 0 .656-.437 1.656-.656 2.594-.156.75.406 1.375 1.156 1.375 1.375 0 2.438-1.437 2.438-3.531 0-1.875-1.344-3.156-3.219-3.156-2.219 0-3.5 1.656-3.5 3.344 0 .688.25 1.406.563 1.781.063.063.063.156.063.219l-.219.875c-.031.156-.125.187-.281.125-.969-.469-1.562-1.875-1.562-3.031 0-2.437 1.781-4.687 5.125-4.687 2.688 0 4.781 1.938 4.781 4.5 0 2.656-1.687 4.813-4.031 4.813-.781 0-1.531-.406-1.781-.906l-.469 1.844c-.187.688-.656 1.531-.969 2.031.719.25 1.5.344 2.313.344A7.75 7.75 0 0 0 15.5 8z" fill="#707070"/></svg>