<svg xmlns="http://www.w3.org/2000/svg" width="14" height="14" fill="none" xmlns:v="https://vecta.io/nano"><path d="M11.875 2.063C10.594.75 8.844 0 6.969 0 3.156 0 .031 3.125.031 6.938c0 1.25.344 2.438.938 3.469L0 14l3.656-.937c1.031.531 2.156.844 3.313.844 3.844 0 7.031-3.125 7.031-6.937 0-1.875-.812-3.594-2.125-4.906zM6.969 12.719a5.78 5.78 0 0 1-2.937-.813l-.187-.125-2.187.594.594-2.125-.156-.219c-.562-.937-.875-2-.875-3.094 0-3.156 2.594-5.75 5.781-5.75 1.531 0 2.969.594 4.063 1.688s1.75 2.531 1.75 4.094c0 3.156-2.656 5.75-5.844 5.75zm3.187-4.313l-1.187-.562c-.156-.062-.281-.094-.406.094-.094.156-.437.563-.531.688-.125.094-.219.125-.375.031-1.031-.5-1.687-.906-2.375-2.062-.187-.312.188-.281.5-.937.063-.125.031-.219 0-.312s-.406-.937-.531-1.281c-.156-.344-.281-.312-.406-.312h-.312c-.125 0-.312.031-.469.219s-.594.594-.594 1.438c0 .875.594 1.688.688 1.813.094.094 1.219 1.844 2.969 2.594 1.094.5 1.531.531 2.094.438.313-.031 1-.406 1.156-.812s.156-.75.094-.812c-.031-.094-.156-.125-.313-.219z" fill="#707070"/></svg>