<svg xmlns="http://www.w3.org/2000/svg" width="41" height="42" fill="#000" fill-rule="evenodd" xmlns:v="https://vecta.io/nano"><path d="M38.543 35.013L7.358 35c-.614-.008-.945.039-1.762.405l-5.048 2.26a.91.91 0 0 0-.548.84.92.92 0 0 0 .546.84l5.05 2.263c.764.342 1.096.381 1.639.381L19.456 42a.602.602 0 1 0 0-1.205l-11.479.001V39.11h26.538v1.686H22.438a.602.602 0 1 0 0 1.205h16.105C39.898 42 41 40.896 41 39.539v-2.065c0-1.357-1.102-2.461-2.457-2.461zM3.485 37.67v1.672l-.578-.259h0 0 0l-1.288-.577 1.867-.836zm1.201-.538v2.748l2.089.885v-4.518c-.179.041-2.089.884-2.089.884zm3.29.772v-1.686l.154.001h26.384v1.686H7.977zm30.566 2.891a1.26 1.26 0 0 0 1.256-1.256v-2.065a1.26 1.26 0 0 0-1.256-1.255h-2.827v4.576h2.827zM1.063 32l18.879-.002c.342 0 .618-.274.618-.611s-.277-.611-.618-.611l-18.705.002V5.848h2.472v20.423c0 .554.457 1.005 1.019 1.005h25.639c.424 0 .792-.226.939-.576s.049-.738-.259-1.042L10.953 5.848h22.742V25.22c0 .571.47 1.035 1.049 1.035h2.726c1.265 0 2.294 1.014 2.294 2.261s-1.029 2.261-2.294 2.261H22.78c-.342 0-.618.273-.618.611s.277.611.618.611h14.689c1.947 0 3.531-1.562 3.531-3.482V5.611c0-1.922-1.584-3.485-3.531-3.485h-2.725c-.578 0-1.049.463-1.049 1.033v1.467H9.714L5.347.32c-.309-.305-.705-.399-1.06-.252s-.582.511-.579.924v3.634H1.063A1.06 1.06 0 0 0 0 5.677v25.272A1.06 1.06 0 0 0 1.063 32zM34.932 3.348h2.537c1.265 0 2.294 1.015 2.294 2.263V25.87c-.618-.522-1.419-.838-2.294-.838h-2.537V3.348zm-5.235 22.707L4.945 1.65v24.404h2.653v-.858c0-.337.277-.611.618-.611s.618.274.618.611v.858h2.655v-1.665c0-.337.277-.611.618-.611s.618.274.618.611v1.665h2.653v-.858c0-.337.277-.611.618-.611s.618.274.618.611v.858h2.655v-1.665c0-.337.277-.611.618-.611s.618.274.618.611v1.665h2.653v-.858c0-.337.277-.611.618-.611s.618.274.618.611v.858h5.301zM16.688 22h-6.199c-.442 0-.727-.293-.727-.746v-6.349c0-.24 0-.685.403-.856.396-.168.682.127.89.342l6.137 6.283c.209.214.495.506.331.913-.166.413-.601.413-.835.413zm-.907-1.148l-4.9-5.017v5.017h4.9z"/></svg>