<svg xmlns="http://www.w3.org/2000/svg" width="38" height="26" fill="#000" fill-rule="evenodd" xmlns:v="https://vecta.io/nano"><path d="M23.67 19.13h13.514c.45 0 .816.397.816.886v2.093.721 2.567c0 .334-.249.604-.557.604s-.557-.27-.557-.604v-1.962H30.91c-.308 0-.557-.27-.557-.604s.249-.604.557-.604h5.976v-.116-1.769H23.67v1.886h4.974c.308 0 .557.271.557.604s-.249.604-.557.604H23.67v1.107c0 .609-.458 1.104-1.02 1.104H11.835C5.309 25.644 0 19.892 0 12.822S5.309 0 11.835 0c5.213 0 9.649 3.671 11.223 8.751h2.012c.484 0 .878.385.98.957l.762 4.297c.065.362-.002.697-.188.942-.179.235-.451.365-.767.365H23.67v3.818zm2.026-5.027l-.735-4.143h-1.589a13.84 13.84 0 0 1 .297 2.862v1.281h2.026zm-24.569-.677h2.028.073.043c.15 0 .356-.015.526-.203.185-.204.179-.445.176-.575a2.32 2.32 0 0 1 0-.143c.054-1.619.53-3.177 1.374-4.506.175-.275.111-.651-.142-.841s-.6-.121-.774.154c-.923 1.451-1.459 3.142-1.559 4.903H1.128c.281-5.921 4.681-10.686 10.15-10.991v1.889c-1.753.116-3.418.777-4.827 1.922a.64.64 0 0 0-.112.846.54.54 0 0 0 .446.242c.116 0 .233-.039.333-.12 1.287-1.045 2.816-1.63 4.424-1.694.053-.002.095-.001.128 0h.003.003c.121.002.344.007.53-.193s.188-.445.187-.622h0v-2.27c5.654.315 10.165 5.396 10.165 11.598v6.912 1.602H12.262c-.543 0-.984.479-.984 1.067v2.017c-5.469-.304-9.869-5.069-10.151-10.993zm11.264 11.009h10.165v-1.607-.284H12.392v1.89zm4.807-4.502h-5.322c-3.493 0-6.334-2.916-6.334-6.501s2.842-6.499 6.334-6.499 6.332 2.915 6.332 6.499v5.461c0 .573-.453 1.04-1.01 1.04zm-.116-6.501c0-2.945-2.336-5.341-5.207-5.341s-5.209 2.396-5.209 5.341 2.337 5.344 5.209 5.344h5.207v-5.344zM13.899 15.6H9.852c-.63 0-1.143-.489-1.143-1.09v-2.156c0-.599.513-1.087 1.143-1.087h4.047c.63 0 1.143.488 1.143 1.087v2.156c0 .601-.513 1.09-1.143 1.09zm-.128-3.123H9.98v1.912h3.79v-1.912z"/></svg>