<svg xmlns="http://www.w3.org/2000/svg" width="38" height="34" fill="none" xmlns:v="https://vecta.io/nano"><path fill-rule="evenodd" d="M35.742 9.63h.589c.921 0 1.67.837 1.67 1.867V23.04c0 1.715-1.248 3.111-2.783 3.111h-1.734v6.101c0 .964-.701 1.748-1.564 1.748-.817 0-1.502-.713-1.56-1.624l-.396-6.225H13.805c-.307 0-.557-.279-.557-.622s.249-.622.557-.622h21.411c.921 0 1.67-.837 1.67-1.867V11.497c0-.343-.25-.622-.557-.622h-2.29c-.269 0-.493.214-.545.497-.008.04-.011.082-.011.125v2.979h.897c.748 0 1.357.68 1.357 1.516v3.593c0 .836-.609 1.517-1.357 1.517H3.62c-.748 0-1.357-.68-1.357-1.516v-3.593c0-.836.609-1.517 1.357-1.517h.896v-2.979c0-.043-.004-.085-.011-.125-.052-.283-.277-.497-.545-.497H1.67c-.307 0-.557.279-.557.622v11.543c0 1.029.749 1.867 1.67 1.867h8.425c.307 0 .557.279.557.622s-.249.622-.557.622H8.036l-.396 6.225C7.582 33.287 6.897 34 6.08 34c-.862 0-1.564-.784-1.564-1.748v-6.101H2.783C1.249 26.151 0 24.755 0 23.04V11.497C0 10.468.749 9.63 1.67 9.63h.588V2.862C2.258 1.284 3.407 0 4.819 0h12.177c.811 0 1.534.424 2.004 1.084C19.47.424 20.193 0 21.004 0h12.177c1.25 0 2.311.998 2.523 2.373.052.339-.151.66-.454.719s-.591-.169-.643-.507c-.12-.777-.719-1.34-1.426-1.34H21.004c-.798 0-1.447.726-1.447 1.618v11.639l.01-.002.015-.003c.095-.022.195-.022 5.144-.02h0 0 0 .001.001.001l7.641.001v-2.979c0-1.029.749-1.867 1.67-1.867h.589v-4.25c0-.344.249-.622.557-.622s.557.279.557.622v4.25zM6.675 32.286l.335-6.164H5.903v6.128c0 .279.173.506.386.506.202 0 .371-.206.385-.47zM34.68 19.63c0 .15-.11.273-.244.273H19.553v-1.651-2.223c0-.15.11-.273.244-.273h14.638c.135 0 .244.122.244.273v3.601zM3.32 9.637h.591c.924 0 1.676.838 1.676 1.868v2.982l7.69-.001h.004 0l5.139.019.027.007V2.863c0-.893-.652-1.619-1.453-1.619H4.773c-.801 0-1.452.726-1.452 1.619v6.774zm0 9.993v-3.601c0-.15.11-.273.244-.273h14.638c.135 0 .244.122.244.273v2.223 1.651H3.565c-.135 0-.244-.122-.244-.273zm28.39 13.126c.213 0 .386-.227.386-.506v-6.128H30.99l.335 6.164c.014.264.184.47.386.47z" fill="#000"/></svg>